<svg width="32" height="32" viewBox="0 0 32 32" fill="none" xmlns="http://www.w3.org/2000/svg">
<path d="M17.4304 19.4169C17.4304 20.1908 16.8124 20.8182 16.0501 20.8182C15.2877 20.8182 14.6697 20.1908 14.6697 19.4169V12.5034C14.6697 11.7295 15.2877 11.1021 16.0501 11.1021C16.8124 11.1021 17.4304 11.7295 17.4304 12.5034V19.4169Z" fill="#626ED4"/>
<path d="M15.0795 4.52559C14.5405 3.97832 14.5405 3.09102 15.0795 2.54375C15.6186 1.99648 16.4926 1.99648 17.0317 2.54375L24.8402 10.4711C25.3793 11.0184 25.3793 11.9057 24.8402 12.4529C24.3011 13.0002 23.4271 13.0002 22.8881 12.4529L15.0795 4.52559Z" fill="#626ED4"/>
<path d="M17.0261 20.4874C16.4871 21.0347 15.6131 21.0347 15.074 20.4874C14.5349 19.9402 14.5349 19.0529 15.074 18.5056L22.8825 10.5783C23.4216 10.031 24.2956 10.031 24.8347 10.5783C25.3737 11.1255 25.3737 12.0128 24.8347 12.5601L17.0261 20.4874Z" fill="#626ED4"/>
<path d="M16.9206 27.4743C17.4596 28.0216 17.4596 28.9089 16.9206 29.4562C16.3815 30.0035 15.5075 30.0035 14.9684 29.4562L7.15991 21.5288C6.62085 20.9816 6.62085 20.0943 7.15991 19.547C7.69898 18.9997 8.57298 18.9997 9.11205 19.547L16.9206 27.4743Z" fill="#626ED4"/>
<path d="M14.974 11.5125C15.513 10.9652 16.387 10.9652 16.9261 11.5125C17.4652 12.0598 17.4652 12.9471 16.9261 13.4943L9.11758 21.4217C8.57851 21.969 7.70451 21.969 7.16545 21.4217C6.62638 20.8744 6.62638 19.9871 7.16545 19.4399L14.974 11.5125Z" fill="#626ED4"/>
</svg>
