<svg width="24" height="24" viewBox="0 0 24 24" fill="none" xmlns="http://www.w3.org/2000/svg">
<path d="M13.0728 14.5626C13.0728 15.1431 12.6093 15.6137 12.0375 15.6137C11.4657 15.6137 11.0022 15.1431 11.0022 14.5626V9.37757C11.0022 8.79711 11.4657 8.32655 12.0375 8.32655C12.6093 8.32655 13.0728 8.79711 13.0728 9.37757V14.5626Z" fill="#626ED4"/>
<path d="M11.3096 3.39419C10.9053 2.98374 10.9053 2.31827 11.3096 1.90781C11.7139 1.49736 12.3694 1.49736 12.7737 1.90781L18.6301 7.85332C19.0344 8.26377 19.0344 8.92924 18.6301 9.33969C18.2258 9.75015 17.5703 9.75015 17.166 9.33969L11.3096 3.39419Z" fill="#626ED4"/>
<path d="M12.7695 15.3656C12.3652 15.776 11.7097 15.776 11.3054 15.3656C10.9011 14.9551 10.9011 14.2896 11.3054 13.8792L17.1618 7.93369C17.5661 7.52324 18.2216 7.52324 18.6259 7.93369C19.0302 8.34414 19.0302 9.00961 18.6259 9.42006L12.7695 15.3656Z" fill="#626ED4"/>
<path d="M12.6904 20.6058C13.0947 21.0162 13.0947 21.6817 12.6904 22.0921C12.2861 22.5026 11.6306 22.5026 11.2263 22.0921L5.36988 16.1466C4.96558 15.7362 4.96558 15.0707 5.36988 14.6603C5.77417 14.2498 6.42967 14.2498 6.83397 14.6603L12.6904 20.6058Z" fill="#626ED4"/>
<path d="M11.2304 8.63438C11.6347 8.22393 12.2902 8.22393 12.6945 8.63438C13.0988 9.04483 13.0988 9.71031 12.6945 10.1208L6.83812 16.0663C6.43382 16.4767 5.77832 16.4767 5.37403 16.0663C4.96973 15.6558 4.96973 14.9903 5.37403 14.5799L11.2304 8.63438Z" fill="#626ED4"/>
</svg>
